# xmcd
#
# Track frame offsets:
#	150
#	48676
#	83628
#	146657
#	216689
#
# Disc length: 3643 seconds
#
# Revision: 1
# Processed by: cddbd v1.5.2PL0 Copyright (c) Steve Scherf et al.
# Submitted via: audiograbber 1.83.01
#
DISCID=4c0e3905
DTITLE=Grateful Dead - 78-05-14A Providence Civic Centre, Providence RI
DYEAR=1900
DGENRE=
TTITLE0=Samson and Delilah
TTITLE1=Ship Of Fools
TTITLE2=Estimated Prophet
TTITLE3=Eyes Of The World
TTITLE4=Drums
EXTD=
EXTT0=
EXTT1=
EXTT2=
EXTT3=
EXTT4=
PLAYORDER=
